inDegrees=yes
name=ik_S57_A12_T01
DataType=double
version=3
OpenSimVersion=4.3-2021-08-27-4bc7ad9
endheader
time	pelvis_tilt	pelvis_list	pelvis_rotation	pelvis_tx	pelvis_ty	pelvis_tz	hip_flexion_r	hip_adduction_r	hip_rotation_r	knee_angle_r	knee_angle_r_beta	ankle_angle_r	subtalar_angle_r	mtp_angle_r	hip_flexion_l	hip_adduction_l	hip_rotation_l	knee_angle_l	knee_angle_l_beta	ankle_angle_l	subtalar_angle_l	mtp_angle_l	lumbar_extension	lumbar_bending	lumbar_rotation	arm_flex_r	arm_add_r	arm_rot_r	elbow_flex_r	pro_sup_r	wrist_flex_r	wrist_dev_r	arm_flex_l	arm_add_l	arm_rot_l	elbow_flex_l	pro_sup_l	wrist_flex_l	wrist_dev_l
12.51999999999982	0.5072536940761799	0.1540358283196423	38.15949112122398	0	0.9399999999999999	0	43.93172360240477	-9.999449762909714	-9.990865657588289	52.32178953055032	0.9131874978436013	0	0	0	43.93172360240477	-9.999449762909714	-9.990865657588289	52.32178953055032	0.9131874978436013	0	0	0	0.01336142145237609	-0.853906035108305	-9.378843234004446	0.5108715435864021	0.07476555649041984	-2.917498615004636	0.6341274849780854	97.3130786883893	0	0	-1.498295995023646	-3.632274829499418	8.30787268341353	23.12907019393573	74.26009656262273	0	0
12.53999999999982	0.5198873901953526	0.1811252956160892	38.37948356568467	0	0.9399999999999999	0	43.93230340977434	-9.999450802693573	-9.990876741708311	52.32276677377788	0.913204553955515	0	0	0	43.93230340977434	-9.999450802693573	-9.990876741708311	52.32276677377788	0.913204553955515	0	0	0	0.0442153406707961	-0.8420939456817796	-9.570718271526809	0.2601152873846318	-0.2331265638299978	-1.497212410587328	0.7048293292421068	96.63743880559176	0	0	-1.02101852000689	-2.109660401143845	9.337608476834674	19.92515193615893	72.95470582116735	0	0
12.55999999999982	0.4914484127236048	0.1885647596942001	38.45569069892284	0	0.9399999999999999	0	43.9329540617266	-9.999451962019172	-9.990889129915834	52.32386886398771	0.9132237890583307	0	0	0	43.9329540617266	-9.999451962019172	-9.990889129915834	52.32386886398771	0.9132237890583307	0	0	0	0.02538494029269886	-0.8128897557136823	-9.709665079762656	0.2973710632034621	-0.3053879517355277	-1.440430377679406	0.6582466245162453	97.01199898383756	0	0	-1.090473937885843	-1.787343001082008	9.505602361813477	15.98733642993504	71.20208291833325	0	0
12.57999999999982	0.4793145754560489	0.2353821573019519	38.73886830865292	0	0.9399999999999999	0	43.93364746099336	-9.999453197701696	-9.990902337099676	52.32504155412108	0.9132442563622635	0	0	0	43.93364746099336	-9.999453197701696	-9.990902337099676	52.32504155412108	0.9132442563622635	0	0	0	0.04746660175407903	-0.7735469318049407	-10.06825382386509	0.3485416930818415	-0.4874422886190673	-1.110498924237934	0.5849220678926464	97.02579673785169	0	0	-1.32164801335154	-1.25857993898681	9.708971898358628	9.910323375653457	67.90312339101746	0	0
12.59999999999982	0.4971549718590029	0.3351384350415034	38.82149553561478	0	0.9399999999999999	0	43.93402199565982	-9.999453865379483	-9.990909473782947	52.32567421399721	0.9132552983601473	0	0	0	43.93402199565982	-9.999453865379483	-9.990909473782947	52.32567421399721	0.9132552983601473	0	0	0	0.1265524421967634	-0.7077759107806498	-10.21778296597987	0.2429999713161944	-0.6600396247199493	-1.012224094527588	0.5577009192268548	97.0125088352565	0	0	-1.285811011498775	0.4630716038719031	9.006875904477441	9.280885002180607	68.67079331377538	0	0
12.61999999999982	0.5152533581000531	0.4091078357503004	38.87824883379821	0	0.9399999999999999	0	43.93445854755679	-9.99945463513512	-9.990917733374291	52.32641865224765	0.9132682912586952	0	0	0	43.93445854755679	-9.99945463513512	-9.990917733374291	52.32641865224765	0.9132682912586952	0	0	0	0.1878381193631782	-0.661712157324477	-10.36170459830483	0.1110219483599542	-0.8192558036933723	-0.9253871524484365	0.567414220819849	97.16831857309687	0	0	-1.49882258729448	0.7983331084092294	8.988731607862423	7.036307526495076	67.3061758483512	0	0
12.63999999999982	0.5229263091574677	0.4586676949824027	39.04823714801644	0	0.9399999999999999	0	43.93494711289646	-9.999455506935067	-9.990927052304571	52.32724166702243	0.9132826555763076	0	0	0	43.93494711289646	-9.999455506935067	-9.990927052304571	52.32724166702243	0.9132826555763076	0	0	0	0.225460658499682	-0.6280664590710622	-10.47790582696025	0.01132672100400352	-0.9572223629333068	-1.014586536757256	0.5646151359787737	97.22905986223203	0	0	-1.901146501356868	1.686269897810397	8.419511277016523	4.159788464108537	67.10955329908269	0	0
12.65999999999982	0.5327786967316678	0.4637795059986781	39.06516091673555	0	0.9399999999999999	0	43.93526666099102	-9.999456073318086	-9.990933121727126	52.32778274801258	0.9132920992211058	0	0	0	43.93526666099102	-9.999456073318086	-9.990933121727126	52.32778274801258	0.9132920992211058	0	0	0	0.236438968691267	-0.6300009072185909	-10.49680744170247	-0.07779495370597517	-0.9798476526532741	-0.9270457205863807	0.5879743489604992	97.16508801708834	0	0	-1.983931793664243	1.844876184906601	8.434084684413529	3.337004734642508	66.94540950114548	0	0
12.67999999999982	0.6457323755075445	0.5988708973253083	39.36361194055488	0	0.9399999999999999	0	43.93965457086372	-9.999461634898275	-9.991000522255263	52.33732538972765	0.9134586497383719	0	0	0	43.93965457086372	-9.999461634898275	-9.991000522255263	52.33732538972765	0.9134586497383719	0	0	0	0.4104150518805488	-0.5923861596674204	-10.45629027802514	-0.514113676354633	-1.152195434078029	-1.203200860476648	0.6851942933266474	97.17253726846953	0	0	-3.092705851463593	2.965979237438299	6.645900904991373	3.249065420928205	68.71404385594008	0	0
12.69999999999982	0.7177583001162258	0.703311278968035	39.51712079934484	0	0.9399999999999999	0	43.94006818471487	-9.999462365426671	-9.991008365955194	52.33802435676258	0.9134708490144944	0	0	0	43.94006818471487	-9.999462365426671	-9.991008365955194	52.33802435676258	0.9134708490144944	0	0	0	0.5316689462251473	-0.5552751778469887	-10.48890525920506	-0.8395153837806256	-1.307046006794241	-1.242499533030559	0.7326834491907396	97.18235014617564	0	0	-3.390364530546657	3.266827601121164	6.76548431855531	2.915332594389905	67.73062751399227	0	0
12.71999999999982	0.7288679683962167	0.7668673932902121	39.66409325206735	0	0.9399999999999999	0	43.94459615015469	-9.99946815711963	-9.99107833952281	52.34777795051006	0.9136410813392898	0	0	0	43.94459615015469	-9.99946815711963	-9.99107833952281	52.34777795051006	0.9136410813392898	0	0	0	0.5852923635544526	-0.5144460817390339	-10.62771866810092	-1.048631268562628	-1.45363583216661	-1.173965522158166	0.8111245891157304	97.17408399654286	0	0	-3.83716682243497	4.301150214136009	4.363319093811209	2.967108195615686	68.54691778308235	0	0
12.73999999999982	0.7268312826013996	0.769122723060887	39.78695868840094	0	0.9399999999999999	0	43.94486744610484	-9.999468634619101	-9.991083477335028	52.34823505434507	0.9136490593062343	0	0	0	43.94486744610484	-9.999468634619101	-9.991083477335028	52.34823505434507	0.9136490593062343	0	0	0	0.586533701348582	-0.5135483197467835	-10.76428684672308	-1.144441252256456	-1.503598763648152	-1.050978731176145	0.8529501828798393	97.18183991235489	0	0	-3.931543424585511	4.643527772489609	3.246972670715472	3.127492579429689	67.84392136946151	0	0
12.75999999999982	0.7261683133976288	0.7702918922386999	39.87915368755538	0	0.9399999999999999	0	43.94509694102975	-9.999469038342131	-9.991087822455198	52.34862174156615	0.9136558082714175	0	0	0	43.94509694102975	-9.999469038342131	-9.991087822455198	52.34862174156615	0.9136558082714175	0	0	0	0.5876295408697703	-0.5135542542415762	-10.84612126550442	-1.261009310599775	-1.554269520409993	-0.8772670748584842	0.8633776347960148	97.13174744770818	0	0	-3.992430619683104	4.888937710427935	2.374613137139305	3.248155383281482	67.79009473047483	0	0
12.77999999999982	0.6972243837285257	0.8163927465376944	39.95873704197367	0	0.9399999999999999	0	43.94540335682803	-9.999469577979973	-9.991093628833497	52.34913722284368	0.9136648051169427	0	0	0	43.94540335682803	-9.999469577979973	-9.991093628833497	52.34913722284368	0.9136648051169427	0	0	0	0.5958946680064042	-0.4607077865408729	-10.92303928055077	-1.349976366951289	-1.711396297327572	-0.5949948442751485	0.8967749817231364	97.00882848572272	0	0	-4.014499948297833	5.253749876838079	1.67766191037191	3.383589476593912	67.47029313471079	0	0
12.79999999999982	0.6993462323346723	0.8154101513962125	40.00775992715894	0	0.9399999999999999	0	43.94560842470304	-9.999469938517917	-9.991097510741573	52.34948259613447	0.9136708330180154	0	0	0	43.94560842470304	-9.999469938517917	-9.991097510741573	52.34948259613447	0.9136708330180154	0	0	0	0.5973080116691203	-0.4633624800969747	-10.95988124913934	-1.410954686516137	-1.742810788456992	-0.3455074022156664	0.8932800188195253	96.98316407070267	0	0	-4.011582788005244	5.464831149170891	1.3042687630293	3.398440251753787	67.45953491663288	0	0
12.81999999999982	0.8454995422130276	0.8120699913213453	40.61301851894425	0	0.9399999999999999	0	43.94583317675374	-9.999470331896475	-9.99110175298657	52.34986257952603	0.9136774649793011	0	0	0	43.94583317675374	-9.999470331896475	-9.99110175298657	52.34986257952603	0.9136774649793011	0	0	0	0.702167583451343	-0.5537572905286098	-10.65103838607149	-1.720202076382329	-1.634016594676986	-1.005703608762368	0.87277415792687	96.92556222963162	0	-1.616420763446103e-35	-4.310337111378073	5.435634328434431	1.972340903809343	3.305771587721459	67.69875668619375	0	-1.616420763446103e-35
